HIERARCHY
ROOT joint_Root
{
	OFFSET 0.0 0.0 0.0
	CHANNELS 6 Xposition Yposition Zposition Zrotation Xrotation Yrotation 
	JOINT Hips
	{
		OFFSET -17.1583 93.1646 452.98
		CHANNELS 6 Xposition Yposition Zposition Zrotation Xrotation Yrotation 
		JOINT Spine
		{
			OFFSET 15.7357 0.0 0.0
			CHANNELS 6 Xposition Yposition Zposition Zrotation Xrotation Yrotation 
			JOINT Chest
			{
				OFFSET 8.98455 -0.406207 0.0
				CHANNELS 6 Xposition Yposition Zposition Zrotation Xrotation Yrotation 
				JOINT Neck
				{
					OFFSET 16.3773 0.0 0.0
					CHANNELS 6 Xposition Yposition Zposition Zrotation Xrotation Yrotation 
					JOINT Head
					{
						OFFSET 6.45672 0.0 0.0
						CHANNELS 6 Xposition Yposition Zposition Zrotation Xrotation Yrotation 
						End Site
						{
							OFFSET 0.0 0.0 0.0
						}
					}
				}
				JOINT Shoulder_L
				{
					OFFSET 12.9942 -0.242716 4.98039
					CHANNELS 6 Xposition Yposition Zposition Zrotation Xrotation Yrotation 
					JOINT UpperArm_L
					{
						OFFSET 5.34809 0.0 0.0
						CHANNELS 6 Xposition Yposition Zposition Zrotation Xrotation Yrotation 
						JOINT LowerArm_L
						{
							OFFSET 24.3286 1.87007e-05 0.0
							CHANNELS 6 Xposition Yposition Zposition Zrotation Xrotation Yrotation 
							JOINT Hand_L
							{
								OFFSET 22.2916 0.0 0.0
								CHANNELS 6 Xposition Yposition Zposition Zrotation Xrotation Yrotation 
								End Site
								{
									OFFSET 0.0 0.0 0.0
								}
							}
						}
					}
				}
				JOINT Shoulder_R
				{
					OFFSET 12.9945 -0.242716 -4.98039
					CHANNELS 6 Xposition Yposition Zposition Zrotation Xrotation Yrotation 
					JOINT UpperArm_R
					{
						OFFSET -5.34813 0.0 0.0
						CHANNELS 6 Xposition Yposition Zposition Zrotation Xrotation Yrotation 
						JOINT LowerArm_R
						{
							OFFSET -24.3289 0.000322201 0.0
							CHANNELS 6 Xposition Yposition Zposition Zrotation Xrotation Yrotation 
							JOINT Hand_R
							{
								OFFSET -22.2915 -0.000108084 0.0
								CHANNELS 6 Xposition Yposition Zposition Zrotation Xrotation Yrotation 
								End Site
								{
									OFFSET 0.0 0.0 0.0
								}
							}
						}
					}
				}
			}
		}
		JOINT UpperLeg_L
		{
			OFFSET -2.19248 -6.46944 0.0
			CHANNELS 6 Xposition Yposition Zposition Zrotation Xrotation Yrotation 
			JOINT LowerLeg_L
			{
				OFFSET 39.0811 0.0 -1.23785e-05
				CHANNELS 6 Xposition Yposition Zposition Zrotation Xrotation Yrotation 
				JOINT Foot_L
				{
					OFFSET 40.9854 0.0 -1.26872e-05
					CHANNELS 6 Xposition Yposition Zposition Zrotation Xrotation Yrotation 
					JOINT Toes_L
					{
						OFFSET 11.7543 0.0 0.0
						CHANNELS 6 Xposition Yposition Zposition Zrotation Xrotation Yrotation 
						End Site
						{
							OFFSET 0.0 0.0 0.0
						}
					}
				}
			}
		}
		JOINT UpperLeg_R
		{
			OFFSET -2.19251 6.46944 0.0
			CHANNELS 6 Xposition Yposition Zposition Zrotation Xrotation Yrotation 
			JOINT LowerLeg_R
			{
				OFFSET -39.0811 -0.00228153 -0.0401928
				CHANNELS 6 Xposition Yposition Zposition Zrotation Xrotation Yrotation 
				JOINT Foot_R
				{
					OFFSET -40.9854 0.0 0.0
					CHANNELS 6 Xposition Yposition Zposition Zrotation Xrotation Yrotation 
					JOINT Toes_R
					{
						OFFSET -11.7543 0.0 0.0
						CHANNELS 6 Xposition Yposition Zposition Zrotation Xrotation Yrotation 
						End Site
						{
							OFFSET 0.0 0.0 0.0
						}
					}
				}
			}
		}
	}
}
MOTION
Frames:	6
Frame Time:	0.0333333
0.000000 0.000000 0.000000 0.000000 0.000000 -0.000000 -0.476669 93.172300 2.341110 88.421700 0.299825 -1.894660 15.735700 0.000005 -0.000001 -29.844800 89.296900 31.520500 8.984550 -0.406207 -0.000000 -8.443820 -1.452660 3.252310 16.377300 -0.000001 -0.000001 -5.298970 2.308730 -1.563470 6.456720 -0.000001 -0.000000 3.276890 2.922420 -5.683670 12.994200 -0.242716 4.980390 -88.903700 -2.032660 -61.652000 5.348090 -0.000007 -0.000001 -25.952800 -60.036000 -88.415900 24.328600 0.000019 0.000005 10.699900 41.557000 -15.894100 22.291600 -0.000001 0.000005 56.836700 4.686630 13.392900 12.994500 -0.242716 -4.980390 94.181400 -7.797710 -61.681700 -5.348130 -0.000001 -0.000004 -53.941300 -60.176900 -110.885000 -24.328900 0.000322 -0.000009 2.662420 7.052560 -20.741600 -22.291500 -0.000108 -0.000004 46.594800 5.657520 -15.798100 -2.192480 -6.469440 -0.000000 -174.038000 -6.737250 -0.253238 39.081100 -0.000007 -0.000012 0.025625 -0.124083 11.668600 40.985400 -0.000006 -0.000013 -0.941661 13.236700 -68.891700 11.754300 -0.000000 0.000003 -0.001315 0.187409 -8.974220 -2.192510 6.469440 -0.000001 177.135000 7.782040 -178.581000 -39.081100 -0.002282 -0.040193 0.003215 0.000829 8.638660 -40.985400 0.000008 0.000006 -8.661980 4.206200 -66.621900 -11.754300 -0.000006 -0.000006 -0.010672 0.276260 -5.348280
0.000000 0.000000 0.000000 0.000000 0.000000 -0.000000 -0.472460 93.195600 2.209130 88.410600 0.241886 -1.944920 15.735700 0.000005 -0.000001 -26.949400 89.347300 28.614000 8.984550 -0.406207 -0.000000 -8.336530 -1.393760 3.235600 16.377300 -0.000001 -0.000001 -5.446140 2.038050 -1.520660 6.456720 -0.000001 -0.000000 2.826580 2.559450 -5.698310 12.994200 -0.242716 4.980390 -88.936600 -1.955870 -61.459700 5.348090 -0.000007 -0.000001 -28.360500 -58.223700 -88.287000 24.328600 0.000019 0.000005 5.668830 34.315200 -9.979510 22.291600 -0.000001 0.000005 52.774500 4.626860 14.464200 12.994500 -0.242716 -4.980390 94.061300 -7.576670 -61.697400 -5.348130 -0.000001 -0.000004 -54.014000 -59.162500 -108.335000 -24.328900 0.000322 -0.000009 0.999263 3.075650 -18.002200 -22.291500 -0.000108 -0.000004 47.305000 5.630820 -13.418400 -2.192480 -6.469440 -0.000000 -174.051000 -6.767400 -0.362719 39.081100 -0.000007 -0.000012 0.025301 -0.123040 11.620000 40.985400 -0.000006 -0.000013 -0.961113 13.192200 -68.827100 11.754300 -0.000000 0.000003 -0.001540 0.190437 -8.851120 -2.192510 6.469440 -0.000001 177.157000 7.712420 -178.695000 -39.081100 -0.002282 -0.040193 0.003474 -0.000884 8.562560 -40.985400 0.000008 0.000006 -8.801010 4.197700 -66.479000 -11.754300 -0.000006 -0.000006 -0.010542 0.275313 -5.387010
0.000000 0.000000 0.000000 0.000000 0.000000 -0.000000 -0.484322 93.209800 2.103510 88.384300 0.184026 -2.092960 15.735700 0.000005 -0.000001 -27.531500 89.360600 29.186800 8.984550 -0.406207 -0.000000 -8.336600 -1.362990 3.219220 16.377300 -0.000001 -0.000001 -5.556010 1.926090 -1.510270 6.456720 -0.000001 -0.000000 2.493870 2.372550 -5.625050 12.994200 -0.242716 4.980390 -89.000700 -1.829860 -61.354100 5.348090 -0.000007 -0.000001 -32.496800 -56.388000 -88.374700 24.328600 0.000019 0.000005 2.461020 26.170500 -5.559880 22.291600 -0.000001 0.000005 48.913900 4.482330 16.919700 12.994500 -0.242716 -4.980390 93.908000 -7.292830 -61.713100 -5.348130 -0.000001 -0.000004 -53.726600 -58.185600 -104.604000 -24.328900 0.000322 -0.000009 -0.379537 -1.429880 -14.928100 -22.291500 -0.000108 -0.000004 46.711900 5.584860 -10.469100 -2.192480 -6.469440 -0.000000 -174.046000 -6.817240 -0.606115 39.081100 -0.000007 -0.000012 0.024172 -0.117062 11.667400 40.985400 -0.000006 -0.000013 -0.977171 13.165500 -68.817500 11.754300 -0.000000 0.000003 -0.001552 0.190590 -8.844910 -2.192510 6.469440 -0.000001 177.235000 7.733050 -178.914000 -39.081100 -0.002282 -0.040193 0.003956 -0.004100 8.530340 -40.985400 0.000008 0.000006 -8.641390 4.207410 -66.416700 -11.754300 -0.000006 -0.000006 -0.010404 0.274301 -5.428440
0.000000 0.000000 0.000000 0.000000 0.000000 -0.000000 -0.484262 93.237000 2.001340 88.387600 0.134307 -2.297560 15.735700 0.000005 -0.000001 -29.285500 89.349000 30.939400 8.984550 -0.406207 -0.000000 -8.382370 -1.365010 3.215840 16.377300 -0.000001 -0.000001 -5.731820 1.923300 -1.456130 6.456720 -0.000001 -0.000000 2.378530 2.428860 -5.701380 12.994200 -0.242716 4.980390 -89.089000 -1.675110 -61.454800 5.348090 -0.000007 -0.000001 -36.499200 -54.861600 -86.974600 24.328600 0.000019 0.000005 0.655839 17.902000 -2.124320 22.291600 -0.000001 0.000005 45.137600 4.297880 19.843000 12.994500 -0.242716 -4.980390 93.797300 -7.065480 -61.648700 -5.348130 -0.000001 -0.000004 -53.663500 -57.091900 -100.433000 -24.328900 0.000322 -0.000009 -1.647330 -8.121500 -11.521100 -22.291500 -0.000108 -0.000004 45.157900 5.512590 -7.025510 -2.192480 -6.469440 -0.000000 -174.083000 -6.886420 -0.762123 39.081100 -0.000007 -0.000012 0.022652 -0.111777 11.456100 40.985400 -0.000006 -0.000013 -1.004130 13.173600 -68.688500 11.754300 -0.000000 0.000003 -0.001295 0.187138 -8.985250 -2.192510 6.469440 -0.000001 177.259000 7.731100 -179.071000 -39.081100 -0.002282 -0.040193 0.004203 -0.005926 8.269790 -40.985400 0.000008 0.000006 -8.584730 4.239850 -66.232600 -11.754300 -0.000006 -0.000006 -0.010067 0.271802 -5.530640
0.000000 0.000000 0.000000 0.000000 0.000000 -0.000000 -0.483170 93.263200 1.882630 88.359600 0.064701 -2.562920 15.735700 0.000005 -0.000001 -31.421700 89.347600 33.091800 8.984550 -0.406207 -0.000000 -8.425730 -1.345800 3.249280 16.377300 -0.000001 -0.000001 -5.884190 2.007320 -1.412710 6.456720 -0.000001 -0.000000 2.145820 2.649070 -5.801540 12.994200 -0.242716 4.980390 -89.186800 -1.516040 -61.785300 5.348090 -0.000007 -0.000001 -42.157100 -53.902900 -85.453600 24.328600 0.000019 0.000005 0.001308 11.338900 -0.000000 22.291600 -0.000001 0.000005 41.157400 4.084360 23.041700 12.994500 -0.242716 -4.980390 93.723200 -6.877540 -61.479000 -5.348130 -0.000001 -0.000004 -55.683900 -55.693400 -97.406700 -24.328900 0.000322 -0.000009 -2.210390 -16.376400 -7.810730 -22.291500 -0.000108 -0.000004 43.153100 5.419140 -3.548320 -2.192480 -6.469440 -0.000000 -174.114000 -6.775960 -1.067740 39.081100 -0.000007 -0.000012 0.022341 -0.110943 11.385800 40.985400 -0.000006 -0.000013 -1.085710 12.973100 -68.628900 11.754300 -0.000000 0.000003 -0.001369 0.188141 -8.944460 -2.192510 6.469440 -0.000001 177.314000 7.729370 -179.345000 -39.081100 -0.002282 -0.040193 0.004739 -0.009825 8.092670 -40.985400 0.000008 0.000006 -8.734800 4.315160 -66.082600 -11.754300 -0.000006 -0.000006 -0.010501 0.275011 -5.399380
0.000000 0.000000 0.000000 0.000000 0.000000 -0.000000 -0.490300 93.277700 1.778650 88.321200 0.037944 -2.667260 15.735700 0.000005 -0.000001 -25.587500 89.367100 27.283200 8.984550 -0.406207 -0.000000 -8.291360 -1.375540 3.299530 16.377300 -0.000001 -0.000001 -6.088730 2.059410 -1.240870 6.456720 -0.000001 -0.000000 1.839710 3.038750 -6.068280 12.994200 -0.242716 4.980390 -89.276200 -1.387670 -62.450700 5.348090 -0.000007 -0.000001 -48.603600 -54.197700 -83.159800 24.328600 0.000019 0.000005 0.001097 2.906790 0.000000 22.291600 -0.000001 0.000005 36.400900 3.838480 26.504000 12.994500 -0.242716 -4.980390 93.787000 -6.908150 -61.175100 -5.348130 -0.000001 -0.000004 -58.009100 -54.365400 -94.645000 -24.328900 0.000322 -0.000009 -0.799803 -24.972200 -1.908640 -22.291500 -0.000108 -0.000004 41.752300 5.257970 1.239400 -2.192480 -6.469440 -0.000000 -174.092000 -6.782070 -1.265810 39.081100 -0.000007 -0.000012 0.022084 -0.109174 11.436000 40.985400 -0.000006 -0.000013 -1.109190 12.943100 -68.626200 11.754300 -0.000000 0.000003 -0.001438 0.189075 -8.906510 -2.192510 6.469440 -0.000001 177.394000 7.736460 -179.481000 -39.081100 -0.002282 -0.040193 0.004883 -0.010981 7.989060 -40.985400 0.000008 0.000006 -8.622820 4.287570 -65.964300 -11.754300 -0.000006 -0.000006 -0.010472 0.274798 -5.408100
